<svg width="100" height="47" xmlns="http://www.w3.org/2000/svg" xmlns:xlink="http://www.w3.org/1999/xlink" overflow="hidden"><defs><clipPath id="clip0"><rect x="3002" y="68" width="100" height="47"/></clipPath></defs><g clip-path="url(#clip0)" transform="translate(-3002 -68)"><path d="M3019.97 79.4942 3019.97 79.4942C3020.19 81.2242 3018.85 82.7885 3016.97 82.9886 3016.95 82.9906 3016.93 82.9923 3016.92 82.994L3006.08 82.994C3004.2 82.8227 3002.83 81.2788 3003.02 79.5459 3003.02 79.5286 3003.02 79.5115 3003.02 79.4942L3003.02 79.4942C3002.8 77.7642 3004.15 76.1998 3006.02 75.9997 3006.04 75.9978 3006.06 75.9958 3006.08 75.9941L3016.92 75.9941C3018.79 76.1656 3020.16 77.7093 3019.97 79.4422 3019.97 79.4595 3019.97 79.4768 3019.97 79.4942Z" fill="#0EFBB8" fill-rule="evenodd"/><path d="M3019.97 102.002 3019.97 102.002C3020.19 103.975 3018.85 105.759 3016.97 105.987 3016.95 105.989 3016.93 105.992 3016.92 105.993L3006.08 105.993C3004.2 105.798 3002.83 104.038 3003.02 102.062 3003.02 102.042 3003.02 102.022 3003.02 102.002L3003.02 102.002C3002.8 100.031 3004.13 98.2398 3006.01 98.0019 3006.02 97.9989 3006.06 97.9958 3006.08 97.9933L3016.92 97.9933C3018.79 98.1875 3020.16 99.9472 3019.97 101.923 3019.97 101.95 3019.97 101.976 3019.97 102.002Z" fill="#0EFBB8" fill-rule="evenodd"/><path d="M3075.5 82.0002 3076.01 82.0002C3080.42 82.0002 3084 85.4681 3084 89.7459L3084 93.2546C3084 97.5324 3080.42 101 3076.01 101L3075.5 101C3073.57 101 3072 99.4813 3072 97.6075L3072 85.393C3072 83.5192 3073.57 82.0002 3075.5 82.0002Z" fill="#0EFBB8" fill-rule="evenodd"/><path d="M3093.28 86.0529 3096.81 86.0529C3099.67 86.0529 3102 88.3772 3102 91.2439L3102 91.809C3102 94.676 3099.67 96.9999 3096.81 96.9999L3093.28 96.9999C3092.02 96.9999 3091 95.9801 3091 94.7224L3091 88.2777C3091 87.0198 3092.02 85.9999 3093.28 85.9999Z" fill="#0EFBB8" fill-rule="evenodd"/><path d="M3028.71 68.0001 3041.67 68.0001C3054.55 68.0001 3065 78.5214 3065 91.5001L3065 91.5001C3065 104.479 3054.55 115 3041.67 115L3028.71 115C3025.56 115 3023 112.427 3023 109.252L3023 73.7479C3023 70.5734 3025.56 68.0001 3028.71 68.0001Z" fill="#0EFBB8" fill-rule="evenodd"/></g></svg>